{
	"asset":{
		"generator":"Khronos glTF Blender I/O v4.3.47",
		"version":"2.0"
	},
	"scene":0,
	"scenes":[
		{
			"name":"Scene",
			"nodes":[
				0
			]
		}
	],
	"nodes":[
		{
			"mesh":0,
			"name":"f-16_meged"
		}
	],
	"materials":[
		{
			"doubleSided":true,
			"name":"Material",
			"pbrMetallicRoughness":{
				"baseColorTexture":{
					"index":0
				},
				"metallicFactor":0,
				"roughnessFactor":0.5
			}
		}
	],
	"meshes":[
		{
			"name":"Cube.002",
			"primitives":[
				{
					"attributes":{
						"POSITION":0,
						"NORMAL":1,
						"TEXCOORD_0":2
					},
					"indices":3,
					"material":0
				}
			]
		}
	],
	"textures":[
		{
			"sampler":0,
			"source":0
		}
	],
	"images":[
		{
			"mimeType":"image/png",
			"name":"F-16",
			"uri":"F-16.png"
		}
	],
	"accessors":[
		{
			"bufferView":0,
			"componentType":5126,
			"count":340,
			"max":[
				1.048743724822998,
				0.6599999666213989,
				1.649999976158142
			],
			"min":[
				-1.048743724822998,
				-0.18516585230827332,
				-1.3199999332427979
			],
			"type":"VEC3"
		},
		{
			"bufferView":1,
			"componentType":5126,
			"count":340,
			"type":"VEC3"
		},
		{
			"bufferView":2,
			"componentType":5126,
			"count":340,
			"type":"VEC2"
		},
		{
			"bufferView":3,
			"componentType":5123,
			"count":540,
			"type":"SCALAR"
		}
	],
	"bufferViews":[
		{
			"buffer":0,
			"byteLength":4080,
			"byteOffset":0,
			"target":34962
		},
		{
			"buffer":0,
			"byteLength":4080,
			"byteOffset":4080,
			"target":34962
		},
		{
			"buffer":0,
			"byteLength":2720,
			"byteOffset":8160,
			"target":34962
		},
		{
			"buffer":0,
			"byteLength":1080,
			"byteOffset":10880,
			"target":34963
		}
	],
	"samplers":[
		{
			"magFilter":9729,
			"minFilter":9987
		}
	],
	"buffers":[
		{
			"byteLength":11960,
			"uri":"f-16.bin"
		}
	]
}
