{
	"asset":{
		"generator":"Khronos glTF Blender I/O v4.3.47",
		"version":"2.0"
	},
	"scene":0,
	"scenes":[
		{
			"name":"Scene",
			"nodes":[
				0
			]
		}
	],
	"nodes":[
		{
			"mesh":0,
			"name":"f-16_meged"
		}
	],
	"meshes":[
		{
			"name":"Cube.002",
			"primitives":[
				{
					"attributes":{
						"POSITION":0,
						"NORMAL":1,
						"TEXCOORD_0":2
					},
					"indices":3
				}
			]
		}
	],
	"accessors":[
		{
			"bufferView":0,
			"componentType":5126,
			"count":351,
			"max":[
				1.048743724822998,
				0.6599999666213989,
				1.649999976158142
			],
			"min":[
				-1.048743724822998,
				-0.18516585230827332,
				-1.3199999332427979
			],
			"type":"VEC3"
		},
		{
			"bufferView":1,
			"componentType":5126,
			"count":351,
			"type":"VEC3"
		},
		{
			"bufferView":2,
			"componentType":5126,
			"count":351,
			"type":"VEC2"
		},
		{
			"bufferView":3,
			"componentType":5123,
			"count":573,
			"type":"SCALAR"
		}
	],
	"bufferViews":[
		{
			"buffer":0,
			"byteLength":4212,
			"byteOffset":0,
			"target":34962
		},
		{
			"buffer":0,
			"byteLength":4212,
			"byteOffset":4212,
			"target":34962
		},
		{
			"buffer":0,
			"byteLength":2808,
			"byteOffset":8424,
			"target":34962
		},
		{
			"buffer":0,
			"byteLength":1146,
			"byteOffset":11232,
			"target":34963
		}
	],
	"buffers":[
		{
			"byteLength":12380,
			"uri":"f-16.bin"
		}
	]
}
